<?xml version="1.0" encoding="UTF-8" standalone="no"?>
<!DOCTYPE svg PUBLIC "-//W3C//DTD SVG 1.1//EN" "http://www.w3.org/Graphics/SVG/1.1/DTD/svg11.dtd">
<svg width="100%" height="100%" viewBox="0 0 512 512" version="1.1" xmlns="http://www.w3.org/2000/svg" xmlns:xlink="http://www.w3.org/1999/xlink" xml:space="preserve" xmlns:serif="http://www.serif.com/" style="fill-rule:evenodd;clip-rule:evenodd;stroke-linejoin:round;stroke-miterlimit:2;">
    <g>
        <path d="M65.44,18.39L63.113,28.107C53.95,66.384 49.07,107.884 49.07,151.293C49.07,244.708 72.167,329.378 110.117,391.307C127.335,419.403 147.769,442.907 170.564,460.227C197.254,481.484 226.917,493.189 257.941,493.189C258.305,493.189 259.088,493.069 259.868,492.939C260.491,492.947 261.115,492.959 261.738,492.959C321.868,492.959 375.408,453.235 413.358,391.306C451.308,329.376 474.405,244.708 474.405,151.292C474.405,109.735 469.547,70.089 461.149,33.28L458.825,23.09L449.243,27.266C398.323,49.462 335.263,62.971 267.157,62.979C265.143,62.957 263.147,62.919 261.155,62.876L261.155,62.8C259.859,62.8 258.569,62.783 257.275,62.77C187.492,60.717 131.782,44.692 74.73,22.072L65.44,18.389L65.44,18.39ZM446.256,47.137C453.048,79.911 457.08,114.784 457.08,151.293C457.08,241.84 434.484,323.673 398.586,382.256C362.686,440.838 314.226,475.636 261.738,475.636C261.543,475.636 261.348,475.63 261.154,475.629L261.154,411.642C258.514,411.665 255.874,411.612 253.24,411.479C197.882,408.709 143.924,372.569 131.21,311.737L128.855,300.481L223.75,300.481L261.154,314.688L261.154,80.206C263.1,80.248 265.05,80.284 267.016,80.304L267.103,80.304C333.271,80.304 394.775,67.921 446.255,47.136L446.256,47.137ZM166.726,145.257C202.091,145.257 230.762,158.505 230.762,174.847C230.762,191.187 202.094,204.432 166.727,204.432C131.362,204.432 102.691,191.186 102.691,174.846C102.691,158.506 131.361,145.258 166.728,145.258L166.726,145.257ZM353.008,145.257C317.641,145.257 288.973,158.505 288.973,174.847C288.973,191.187 317.643,204.432 353.008,204.432C388.375,204.432 417.043,191.186 417.043,174.846C417.043,158.506 388.373,145.258 353.008,145.258L353.008,145.257ZM152.572,319.17C167.292,364.223 209.768,392.215 254.174,392.816C308.321,393.549 300.001,380.421 353.001,401.007C353.001,401.007 357.716,334.77 309.601,333.354C293.916,332.892 262.939,335.357 262.939,335.357L220.319,319.17L152.571,319.17L152.572,319.17Z" style="fill:white;fill-rule:nonzero;"/>
    </g>
</svg>
