<?xml version="1.0" encoding="UTF-8" standalone="no"?>
<!DOCTYPE svg PUBLIC "-//W3C//DTD SVG 1.1//EN" "http://www.w3.org/Graphics/SVG/1.1/DTD/svg11.dtd">
<svg width="100%" height="100%" viewBox="0 0 512 512" version="1.1" xmlns="http://www.w3.org/2000/svg" xmlns:xlink="http://www.w3.org/1999/xlink" xml:space="preserve" xmlns:serif="http://www.serif.com/" style="fill-rule:evenodd;clip-rule:evenodd;stroke-linejoin:round;stroke-miterlimit:2;">
    <g transform="matrix(0.612273,1.06049,-1.06049,0.612273,301.363,-276.866)">
        <path d="M273.343,16L273.343,403.657L298.655,385.375C298.655,385.375 307.628,412.995 333.343,440.688C359.057,468.38 436,496 436,496L436,385.375C436,385.375 414.292,397.302 403.657,395.218C388.157,393.438 375.103,380.322 373.189,370.843C386.184,368.24 396.156,354.453 396.156,338.03C396.156,319.747 383.648,304.75 368.499,304.75C367.037,304.75 363.807,304.02 362.406,304.28L324.44,145.375L324.44,16L273.343,16Z" style="fill:white;fill-rule:nonzero;"/>
    </g>
</svg>
