<?xml version="1.0" encoding="UTF-8" standalone="no"?>
<!DOCTYPE svg PUBLIC "-//W3C//DTD SVG 1.1//EN" "http://www.w3.org/Graphics/SVG/1.1/DTD/svg11.dtd">
<svg width="100%" height="100%" viewBox="0 0 512 512" version="1.1" xmlns="http://www.w3.org/2000/svg" xmlns:xlink="http://www.w3.org/1999/xlink" xml:space="preserve" xmlns:serif="http://www.serif.com/" style="fill-rule:evenodd;clip-rule:evenodd;stroke-linejoin:round;stroke-miterlimit:2;">
    <path d="M176,56L176,96L336,96L336,56C336,51.6 332.4,48 328,48L184,48C179.6,48 176,51.6 176,56ZM128,480L128,56C128,25.1 153.1,0 184,0L328,0C358.9,0 384,25.1 384,56L384,480L128,480ZM64,96L96,96L96,480L64,480C28.7,480 0,451.3 0,416L0,160C0,124.7 28.7,96 64,96ZM448,480L416,480L416,96L448,96C483.3,96 512,124.7 512,160L512,416C512,451.3 483.3,480 448,480Z" style="fill:rgb(122,121,113);fill-rule:nonzero;"/>
</svg>
